<svg xmlns="http://www.w3.org/2000/svg" viewBox="0 0 28 28" fill="none">
  <g transform="translate(2.333 2.333)">
    <path fill-rule="evenodd" clip-rule="evenodd" fill="#fff" d="M11.6667 23.3333C6.16695 23.3333 3.41709 23.3333 1.70854 21.6248C0 19.9162 0 17.1664 0 11.6667C0 6.16695 0 3.41709 1.70854 1.70854C3.41709 0 6.16695 0 11.6667 0C17.1664 0 19.9162 0 21.6248 1.70854C23.3333 3.41709 23.3333 6.16695 23.3333 11.6667C23.3333 17.1664 23.3333 19.9162 21.6248 21.6248C19.9162 23.3333 17.1664 23.3333 11.6667 23.3333ZM7.875 5.24997C7.875 4.76672 7.48325 4.37497 7 4.37497C6.51675 4.37497 6.125 4.76672 6.125 5.24997L6.125 6.70833H4.66667C4.18342 6.70833 3.79167 7.10008 3.79167 7.58333C3.79167 8.06657 4.18342 8.45833 4.66667 8.45833L6.125 8.45833V9.91664C6.125 10.3999 6.51675 10.7916 7 10.7916C7.48325 10.7916 7.875 10.3999 7.875 9.91664V8.45833H9.33333C9.81658 8.45833 10.2083 8.06657 10.2083 7.58332C10.2083 7.10008 9.81658 6.70832 9.33333 6.70832H7.875L7.875 5.24997ZM14 6.70831C13.5168 6.70831 13.125 7.10006 13.125 7.58331C13.125 8.06656 13.5168 8.45831 14 8.45831H18.6667C19.1499 8.45831 19.5417 8.06656 19.5417 7.58331C19.5417 7.10006 19.1499 6.70831 18.6667 6.70831H14ZM14 13.7083C13.5168 13.7083 13.125 14.1001 13.125 14.5833C13.125 15.0666 13.5168 15.4583 14 15.4583H18.6667C19.1499 15.4583 19.5417 15.0666 19.5417 14.5833C19.5417 14.1001 19.1499 13.7083 18.6667 13.7083H14ZM5.86872 13.9646C5.52701 13.6229 4.97299 13.6229 4.63128 13.9646C4.28957 14.3063 4.28957 14.8603 4.63128 15.2021L5.76257 16.3333L4.6313 17.4646C4.28959 17.8063 4.28959 18.3603 4.6313 18.7021C4.97301 19.0438 5.52702 19.0438 5.86873 18.7021L7.00001 17.5708L8.13127 18.702C8.47298 19.0437 9.027 19.0437 9.3687 18.702C9.71041 18.3603 9.71041 17.8063 9.3687 17.4646L8.23744 16.3333L9.36872 15.2021C9.71043 14.8604 9.71043 14.3063 9.36872 13.9646C9.02701 13.6229 8.47299 13.6229 8.13128 13.9646L7.00001 15.0959L5.86872 13.9646ZM14 17.2083C13.5168 17.2083 13.125 17.6001 13.125 18.0833C13.125 18.5666 13.5168 18.9583 14 18.9583H18.6667C19.1499 18.9583 19.5417 18.5666 19.5417 18.0833C19.5417 17.6001 19.1499 17.2083 18.6667 17.2083H14Z"/>
  </g>
</svg>
