<svg width="200" height="200" viewBox="0 0 100 100" xmlns="http://www.w3.org/2000/svg">
  <title>Girl 10-14 years</title>
  <circle cx="50" cy="50" r="50" fill="#1C1C24"/>
  <path d="M 24,46 Q 20,20 50,20 Q 80,20 76,46 L 78,80 Q 78,82 76,80 L 76,46 Q 76,28 50,28 Q 24,28 24,46 L 22,80 Q 22,82 24,80 Z" fill="#1A1A24"/>
  <circle cx="50" cy="46" r="20" fill="#F5C4A5"/>
  <circle cx="42" cy="48" r="2" fill="#2A2A35"/>
  <circle cx="58" cy="48" r="2" fill="#2A2A35"/>
  <path d="M 45,56 Q 50,58 55,56" stroke="#2A2A35" stroke-width="1.5" fill="none" stroke-linecap="round"/>
  <path d="M 28,90 Q 28,70 50,66 Q 72,70 72,90 Z" fill="#C5F562"/>
</svg>
